<?xml version="1.0" encoding="utf-8"?>
<!-- Generator: Adobe Illustrator 20.0.0, SVG Export Plug-In . SVG Version: 6.00 Build 0)  -->
<svg version="1.1" id="Vrstva_1" xmlns="http://www.w3.org/2000/svg" xmlns:xlink="http://www.w3.org/1999/xlink" x="0px" y="0px"
	 viewBox="0 0 139 137.6" style="enable-background:new 0 0 139 137.6;" xml:space="preserve">
<style type="text/css">
	.st0{clip-path:url(#SVGID_2_);fill:#FFFFFF;}
</style>
<g>
	<defs>
		<rect id="SVGID_1_" width="139" height="137.6"/>
	</defs>
	<clipPath id="SVGID_2_">
		<use xlink:href="#SVGID_1_"  style="overflow:visible;"/>
	</clipPath>
	<path class="st0" d="M35.9,32.9c0-9.7-4.5-12.1-9.2-12.1h-2.3v24.9h2.9C32.7,45.8,35.9,41.7,35.9,32.9 M56.3,9.2h13.3l12.9,21v-21
		h15v48.3H84.6L71.1,36.1v21.4H56.3V9.2z M9.2,9.2h17.7c14.8,0,24,7,24,22.6c0,18.7-11.3,25.7-23.6,25.7H9.2V9.2z M0,137.6h139V0H0
		V137.6z M107.8,65.5l-4.3,3.7l-0.8-0.8l2.7-4.3c0.6,0.4,1.8,0.6,2.3,0.8V65.5z M107.8,83h-2.9h-2.7v-0.8c0.4-0.2,1-0.4,1.2-0.6
		c0.2-0.6,0.2-1.2,0.4-1.9v-5.1c0-0.8-0.2-1.4-0.2-1.9c-0.4-0.2-0.8-0.4-1.6-0.4l-0.2-1c1.6,0,2.7-0.4,3.7-0.8l0.6,0.2
		c-0.2,0.6-0.2,1.9-0.2,2.5v6.8c0,0.6,0,1,0.2,1.4c0.6,0.4,1.2,0.4,1.8,0.8V83z M100.4,83h-2.7h-2.7v-0.8c0.4-0.2,0.8-0.4,1-0.6
		c0.2-0.6,0.4-1.2,0.4-1.9v-5.1c0-1.8-0.8-2.5-2.5-2.5c-1.2,0-2.3,0.6-2.9,1.2v6.8c0,0.6,0,1,0.2,1.4c0.8,0.4,1.2,0.6,1.8,0.8V83H90
		h-2.7v-0.8c0.4-0.2,0.8-0.4,1.2-0.6c0.2-0.6,0.2-1.2,0.2-1.9v-5.1c0-0.8,0-1.4-0.2-1.9c-0.4-0.2-0.8-0.4-1.6-0.4l-0.2-1
		c1.4,0,2.3-0.4,3.3-0.8l0.4,0.2c0,0.4,0,1.2,0.2,1.4h0.2c0.6-0.4,1.2-1,1.9-1.2c0.4-0.4,1.2-0.4,1.8-0.4c2.7,0,3.7,1.4,3.7,3.9v5.7
		c0.2,0.6,0.2,1,0.4,1.4c0.6,0.4,1,0.6,1.8,0.8V83z M85.6,83h-2.9h-2.7v-0.8c0.6-0.2,1-0.4,1.2-0.6c0.2-0.6,0.2-1.2,0.2-1.9V69.2
		v-1.9c-0.4-0.4-1.2-0.4-1.8-0.6l-0.2-0.8c1.6-0.2,2.7-0.4,3.9-1l0.4,0.4v1.9v12.9v1.4c0.8,0.4,1.2,0.6,1.9,0.8V83z M83.2,93.9
		c-0.4,0.2-1,0.4-1.2,0.6l-4.3,10.9c-1,2.7-2.3,4.9-5.1,4.9c0,0-0.2,0-0.4-0.2l-0.4-1.9l0.4-0.2c0.4,0.2,0.8,0.2,1,0.2
		c1.6,0,2.5-1,3.1-2.7l-4.3-11.1c-0.2-0.2-0.8-0.2-1-0.2V93h5.1v1.2h-1.6l-0.2,0.4l2.9,8.2h0.2l2.7-8.2v-0.4h-1.8V93h4.7V93.9z
		 M70.9,105.2c-1,0-1.9-0.2-2.7-0.2c-1,0-1.9,0.2-2.7,0.2v-0.8c0.4-0.2,0.8-0.4,1-0.6c0.2-0.6,0.4-1.2,0.4-1.9v-5.1
		c0-1.8-0.8-2.5-2.5-2.5c-1.2,0-2.3,0.6-2.9,1.2v6.8c0,0.6,0,1,0.2,1.4c0.6,0.4,1.2,0.6,1.8,0.8v0.8c-1,0-1.9-0.2-2.7-0.2
		c-1,0-1.9,0.2-2.7,0.2v-0.8c0.2-0.2,0.8-0.4,1-0.6c0.2-0.6,0.2-1.2,0.4-1.9v-5.1c0-0.8-0.2-1.4-0.2-1.9c-0.4-0.4-1-0.4-1.6-0.4
		l-0.2-0.8c1.4-0.2,2.1-0.6,3.1-1L61,93c0,0.4,0,1.2,0.2,1.4h0.2c0.4-0.4,1.2-1,1.8-1.4c0.6-0.2,1.4-0.2,1.8-0.2
		c2.7,0,3.9,1.4,3.9,3.9v5.7c0,0.6,0.2,1,0.2,1.4c0.8,0.4,1.2,0.6,1.9,0.8V105.2z M54.6,77.2c0-4.3,3.1-6.6,5.8-6.6
		c1,0,1.8,0,2.3,0.4v-1.8c0-0.8,0-1.4-0.2-1.9c-0.4-0.4-1-0.4-1.8-0.6l-0.2-0.8c1.6-0.2,2.9-0.4,3.9-1l0.6,0.4
		c-0.2,0.6-0.2,1.2-0.2,1.9v11.9c0,1,0.2,1.9,0.4,2.3c0.6,0.4,1,0.4,1.8,0.8V83h-1.9h-1.8c-0.2-0.6-0.2-1.2-0.2-1.6h-0.4
		c-0.6,0.4-1,1-1.8,1.4c-0.6,0.4-1,0.4-1.8,0.4C56.1,83.2,54.6,80.9,54.6,77.2 M55.9,105.2c-1,0-1.9-0.2-2.9-0.2
		c-0.8,0-1.8,0.2-2.7,0.2v-0.8c0.4-0.2,1-0.4,1.4-0.6c0-0.6,0.2-1.2,0.2-1.9v-5.1c0-0.8,0-1.4-0.2-1.9c-0.4-0.4-0.8-0.4-1.4-0.4
		l-0.2-0.8c1.4-0.2,2.5-0.6,3.7-1l0.6,0.2c-0.2,0.6-0.4,1.9-0.4,2.5v6.8c0,0.6,0,1,0.2,1.4c0.8,0.4,1.2,0.4,1.8,0.8V105.2z
		 M49.5,81.5h-0.4c-0.4,0.4-1,1-1.6,1.4c-0.4,0.2-0.8,0.4-1.8,0.4c-1.4,0-3.1-0.8-3.1-3.1c0-1.2,0.4-1.9,1-2.3
		c0.8-0.8,2.9-1.4,5.5-1.9v-1.2c0-1.9-0.4-2.7-2.3-2.7c-0.8,0-1.4,0.2-1.4,0.2c-0.2,0.6-0.2,1.6-0.2,2.1L44,74.6h-0.4
		c0-1-0.2-1.9-0.4-2.7c1.2-0.8,3.5-1.4,4.7-1.4c2.3,0,3.3,1.2,3.3,3.5v5.3c0,0.8,0.2,1.8,0.4,2.1c0.6,0.4,1,0.4,1.8,0.8V83h-1.9
		h-1.8C49.5,82.4,49.5,81.9,49.5,81.5 M48.5,93.9c-0.4,0.2-1,0.4-1.2,0.6l-4.3,10.9h-1.4l-4.1-11.1c-0.2-0.2-0.8-0.2-1.2-0.2V93h5.1
		v1.2h-1.4L40,94.5l2.7,8h0.4l2.7-8l-0.2-0.4H44V93h4.5V93.9z M34.3,83.2l-4.1-11.1c-0.2-0.2-0.8-0.2-1.2-0.2v-1.2h5.1v1.2h-1.4v0.4
		l2.7,8.2l2.9-8.2l-0.2-0.4h-1.4v-1.2h4.3v1c-0.2,0.2-0.8,0.4-1.2,0.6l-4.1,10.9H34.3z M29.4,105.4c-3.5,0-5.5-2.5-5.5-6.2
		c0-3.9,2.3-6.4,6-6.4c3.1,0,5.5,1.9,5.5,5.8C35.5,102.7,33.1,105.4,29.4,105.4 M23,105.2c-1,0-1.8-0.2-2.7-0.2s-1.8,0.2-2.7,0.2
		v-0.8c0.2-0.2,0.8-0.4,1-0.6c0.2-0.6,0.2-1.2,0.4-1.9v-5.1c0-1.8-0.8-2.5-2.5-2.5c-1.2,0-2.3,0.6-2.9,1.2v6.8c0,0.6,0,1,0.2,1.4
		c0.6,0.4,1.2,0.6,1.8,0.8v0.8c-1,0-1.8-0.2-2.7-0.2c-1,0-1.8,0.2-2.7,0.2v-0.8c0.4-0.2,1-0.4,1-0.6c0.2-0.6,0.4-1.2,0.4-1.9v-5.1
		c0-0.8,0-1.4-0.2-1.9c-0.4-0.4-1-0.4-1.8-0.4v-0.8c1.6-0.2,2.1-0.6,3.3-1l0.4,0.2c0,0.4,0,1.2,0.2,1.4h0.2c0.6-0.4,1-1,1.8-1.4
		c0.6-0.2,1.4-0.2,1.9-0.2c2.5,0,3.7,1.4,3.7,3.9v5.7c0,0.6,0.2,1,0.4,1.4c0.6,0.4,1,0.6,1.8,0.8V105.2z M14.4,70.5
		c1,0,1.9,0,2.5,0.4v-1.8c0-0.8,0-1.4-0.2-1.9c-0.4-0.4-1-0.4-1.8-0.6v-0.8c1.4-0.2,2.7-0.4,3.7-1l0.6,0.4c-0.2,0.6-0.2,1.2-0.2,1.9
		v11.9c0,1,0.2,1.9,0.4,2.3c0.6,0.4,1,0.4,1.8,0.8V83h-1.9h-1.8c-0.2-0.6-0.2-1.2-0.4-1.6c-0.6,0.4-1.4,1-1.9,1.4
		c-0.8,0.4-1,0.4-1.8,0.4c-3.1,0-4.7-2.3-4.7-6C8.8,72.9,11.7,70.5,14.4,70.5 M24,66.8c0-1,0.6-1.6,1.4-1.6c1,0,1.6,0.6,1.6,1.6
		c0,0.8-0.6,1.4-1.6,1.4C24.6,68.2,24,67.6,24,66.8 M24.4,72.7c-0.4-0.2-0.8-0.4-1.6-0.4l-0.2-1c1.4,0,2.7-0.4,3.7-0.8l0.6,0.2
		c-0.2,0.6-0.4,1.9-0.4,2.5v6.8c0,0.6,0.2,1,0.2,1.4c0.8,0.4,1.2,0.4,1.9,0.8V83h-2.9H23v-0.8c0.2-0.2,1-0.4,1.2-0.6
		c0.2-0.6,0.4-1.2,0.4-1.9v-5.1C24.6,73.9,24.6,73.3,24.4,72.7 M54.4,89.1c0,0.8-0.8,1.4-1.6,1.4c-0.8,0-1.6-0.6-1.6-1.4
		c0-0.8,0.8-1.8,1.6-1.8C53.6,87.3,54.4,88.3,54.4,89.1 M74.4,81.5c1.4,0,1.9-0.4,3.3-1.2l0.4,0.8c-0.8,0.6-2.1,1.8-2.5,1.8
		c-0.6,0.4-1.4,0.4-2.1,0.4c-3.1,0-5.3-2.1-5.3-6.2c0-3.7,2.1-6.4,5.7-6.4c2.9,0,4.3,2.1,4.3,4.9L77.4,76l-7,0.4
		C70.4,79.3,71.7,81.5,74.4,81.5 M62.8,80.5v-7.4c-0.6-0.8-1.4-1.6-2.7-1.6c-1.8,0-3.1,1.8-3.1,4.9c0,2.7,0.8,5.3,3.1,5.3
		C61,81.7,62,81.3,62.8,80.5 M73.7,71.5c-1.9,0-3.1,1.4-3.3,3.9l5.5-0.4C75.8,73.3,75.2,71.5,73.7,71.5 M29.4,93.9
		c-2.1,0-2.9,1.9-2.9,4.3c0,2.5,0.8,6,3.5,6c2.1,0,2.9-1.9,2.9-4.5C32.9,96.5,31.8,93.9,29.4,93.9 M14.2,81.7c1,0,1.9-0.4,2.7-1.2
		v-7.4c-0.6-0.8-1.6-1.6-2.5-1.6c-1.9,0-3.3,1.8-3.3,4.9C11.1,79.1,11.9,81.7,14.2,81.7 M45,79.7c0,1.4,0.6,1.9,1.8,1.9
		c1,0,1.8-0.6,2.3-1.2v-3.7c-1.6,0.4-2.9,0.8-3.5,1.4C45.2,78.5,45,79.1,45,79.7"/>
</g>
</svg>
